<svg xmlns="http://www.w3.org/2000/svg" version="1.1" xmlns:xlink="http://www.w3.org/1999/xlink" xmlns:svgjs="http://svgjs.dev/svgjs" width="2000" height="898" viewBox="0 0 2000 898"><g transform="matrix(1,0,0,1,-1.2121212121212466,0.20126354441418925)"><svg viewBox="0 0 396 178" data-background-color="#ffffff" preserveAspectRatio="xMidYMid meet" height="898" width="2000" xmlns="http://www.w3.org/2000/svg" xmlns:xlink="http://www.w3.org/1999/xlink"><g id="tight-bounds" transform="matrix(1,0,0,1,0.2400000000000091,-0.03989411014001121)"><svg viewBox="0 0 395.52 178.07978822028002" height="178.07978822028002" width="395.52"><rect width="395.52" height="178.07978822028002" fill="#ffffff" mask="url(&quot;#4b7a90bb-f2c5-4a69-91eb-2e106e53c882&quot;)" data-fill-palette-color="accent"></rect><g><svg viewBox="0 0 751.951250566987 338.56017256508846" height="178.07978822028002" width="395.52"><g transform="matrix(1,0,0,1,356.431250566987,108.03548198350508)"><svg viewBox="0 0 395.52 122.4892085980783" height="122.4892085980783" width="395.52"><g id="textblocktransform"><svg viewBox="0 0 395.52 122.4892085980783" height="122.4892085980783" width="395.52" id="textblock"><g><svg viewBox="0 0 395.52 75.7005286513602" height="75.7005286513602" width="395.52"><g transform="matrix(1,0,0,1,0,0)"><svg width="395.52" viewBox="0.6 -37.5 259.13 49.6" height="75.7005286513602" data-palette-color="#000000"><path d="M13 0L7.95 0 0.6-24.5 5.9-24.5 10.6-4.95 15.8-23.75 20.45-23.75 25.7-4.95 30.4-24.5 35.7-24.5 28.3 0 23.25 0 18.15-18.1 13 0ZM50.8 0.5L50.8 0.5Q46.47 0.5 43.52-1.28 40.57-3.05 39.06-5.99 37.55-8.93 37.55-12.45L37.55-12.45Q37.55-15.88 38.96-18.73 40.37-21.58 43.06-23.29 45.75-25 49.55-25L49.55-25Q52.6-25 54.98-23.79 57.37-22.58 58.73-20.26 60.1-17.95 60.1-14.65L60.1-14.65Q60.1-14.13 60.06-13.51 60.02-12.9 59.9-12.25L59.9-12.25 42.15-12.25Q42.47-8.85 43.77-6.95 45.07-5.05 47.05-4.28 49.02-3.5 51.35-3.5L51.35-3.5Q53.05-3.5 54.9-3.85 56.75-4.2 58.4-4.95L58.4-4.95 59-1.4Q57.57-0.78 55.52-0.14 53.47 0.5 50.8 0.5ZM42.55-15.35L42.55-15.35 55.45-15.35Q55.45-17.07 54.8-18.35 54.15-19.63 52.82-20.31 51.5-21 49.45-21L49.45-21Q46.45-21 44.84-19.51 43.22-18.03 42.55-15.35ZM70.34 0.5L70.34 0.5Q68.07 0.5 66.37-0.43 64.67-1.35 63.73-2.95 62.8-4.55 62.8-6.6L62.8-6.6Q62.8-8.68 63.71-10.16 64.62-11.65 66.16-12.64 67.7-13.63 69.59-14.21 71.5-14.8 73.53-15.06 75.57-15.33 77.45-15.35L77.45-15.35Q77.45-18.85 76.07-19.93 74.7-21 72.09-21L72.09-21Q70.72-21 69.16-20.58 67.59-20.15 65.65-18.8L65.65-18.8 65-22.45Q66.47-23.58 68.67-24.29 70.87-25 73.3-25L73.3-25Q76.4-25 78.3-23.91 80.2-22.83 81.07-20.25 81.95-17.68 81.95-13.25L81.95-13.25 81.95-8.25Q81.95-6.5 82.11-5.36 82.27-4.23 82.86-3.66 83.45-3.1 84.75-3.1L84.75-3.1 85.2-3.1 84.5 0.5 84.15 0.5Q81.97 0.5 80.78 0.08 79.59-0.35 78.97-1.15 78.34-1.95 77.84-3.1L77.84-3.1Q76.47-1.5 74.59-0.5 72.72 0.5 70.34 0.5ZM71.2-3.1L71.2-3.1Q73-3.1 74.68-4 76.37-4.9 77.45-6.4L77.45-6.4 77.45-12.25Q73.87-12.13 71.66-11.55 69.45-10.98 68.42-9.83 67.4-8.68 67.4-6.85L67.4-6.85Q67.4-4.88 68.46-3.99 69.52-3.1 71.2-3.1ZM100.64 0.5L96.59 0.5Q94.27 0.5 92.87-0.35 91.47-1.2 90.83-2.54 90.19-3.88 90.19-5.35L90.19-5.35 90.19-21 85.99-21 86.39-24.5 90.19-24.5 90.19-30.55 94.69-31 94.69-24.5 101.14-24.5 101.14-21 94.69-21 94.69-8.1Q94.69-5.75 94.97-4.7 95.24-3.65 96.33-3.38 97.42-3.1 99.84-3.1L99.84-3.1 100.99-3.1 100.64 0.5ZM109.49 0L104.94 0 104.94-37.5 109.49-37.5 109.49-20.25 107.89-20.35Q109.61-22.53 111.6-23.76 113.59-25 116.69-25L116.69-25Q119.86-25 121.99-23.58 124.11-22.15 125.18-19.6 126.24-17.05 126.24-13.65L126.24-13.65 126.24 0 121.74 0 121.74-13.1Q121.74-17.15 120.25-19.07 118.77-21 115.69-21L115.69-21Q113.36-21 111.58-19.75 109.79-18.5 108.74-16.4L108.74-16.4 109.49-19.15 109.49 0ZM143.84 0.5L143.84 0.5Q139.51 0.5 136.56-1.28 133.61-3.05 132.1-5.99 130.59-8.93 130.59-12.45L130.59-12.45Q130.59-15.88 132-18.73 133.41-21.58 136.1-23.29 138.79-25 142.59-25L142.59-25Q145.64-25 148.03-23.79 150.41-22.58 151.78-20.26 153.14-17.95 153.14-14.65L153.14-14.65Q153.14-14.13 153.1-13.51 153.06-12.9 152.94-12.25L152.94-12.25 135.19-12.25Q135.51-8.85 136.81-6.95 138.11-5.05 140.09-4.28 142.06-3.5 144.39-3.5L144.39-3.5Q146.09-3.5 147.94-3.85 149.79-4.2 151.44-4.95L151.44-4.95 152.04-1.4Q150.61-0.78 148.56-0.14 146.51 0.5 143.84 0.5ZM135.59-15.35L135.59-15.35 148.49-15.35Q148.49-17.07 147.84-18.35 147.19-19.63 145.86-20.31 144.54-21 142.49-21L142.49-21Q139.49-21 137.88-19.51 136.26-18.03 135.59-15.35ZM162.48 0L157.69 0 157.69-24.5 161.38-24.5 161.94-20.45Q163.81-22.78 165.52-23.89 167.23-25 169.19-25L169.19-25Q169.81-25 170.33-24.85L170.33-24.85 169.88-19.9Q169.56-19.98 169.2-20.01 168.83-20.05 168.38-20.05L168.38-20.05Q166.44-20.05 164.8-19.19 163.16-18.32 162.48-17.3L162.48-17.3 162.48 0ZM190.43 0.5L190.43 0.5Q188.16 0.5 186.46-0.43 184.75-1.35 183.82-2.95 182.88-4.55 182.88-6.6L182.88-6.6Q182.88-8.68 183.79-10.16 184.71-11.65 186.24-12.64 187.78-13.63 189.68-14.21 191.58-14.8 193.62-15.06 195.66-15.33 197.53-15.35L197.53-15.35Q197.53-18.85 196.16-19.93 194.78-21 192.18-21L192.18-21Q190.81-21 189.24-20.58 187.68-20.15 185.73-18.8L185.73-18.8 185.08-22.45Q186.56-23.58 188.75-24.29 190.96-25 193.38-25L193.38-25Q196.48-25 198.38-23.91 200.28-22.83 201.16-20.25 202.03-17.68 202.03-13.25L202.03-13.25 202.03-8.25Q202.03-6.5 202.19-5.36 202.36-4.23 202.94-3.66 203.53-3.1 204.83-3.1L204.83-3.1 205.28-3.1 204.58 0.5 204.23 0.5Q202.06 0.5 200.87 0.08 199.68-0.35 199.06-1.15 198.43-1.95 197.93-3.1L197.93-3.1Q196.56-1.5 194.68-0.5 192.81 0.5 190.43 0.5ZM191.28-3.1L191.28-3.1Q193.08-3.1 194.77-4 196.46-4.9 197.53-6.4L197.53-6.4 197.53-12.25Q193.96-12.13 191.74-11.55 189.53-10.98 188.5-9.83 187.48-8.68 187.48-6.85L187.48-6.85Q187.48-4.88 188.54-3.99 189.61-3.1 191.28-3.1ZM213.23 12.1L208.73 12.1 208.73-24.5 212.23-24.5 213.03-18.9 211.78-19.8Q213.33-22.2 215.6-23.6 217.88-25 221.18-25L221.18-25Q224.53-25 226.93-23.3 229.33-21.6 230.6-18.71 231.88-15.83 231.88-12.25L231.88-12.25Q231.88-8.68 230.68-5.79 229.48-2.9 227.1-1.2 224.73 0.5 221.18 0.5L221.18 0.5Q218.25 0.5 215.89-0.71 213.53-1.93 212.48-4.35L212.48-4.35 213.23-5.25 213.23 12.1ZM220.33-3.5L220.33-3.5Q223.6-3.5 225.44-5.81 227.28-8.13 227.28-12.25L227.28-12.25Q227.28-16.38 225.44-18.69 223.6-21 220.33-21L220.33-21Q218.3-21 216.64-20.04 214.98-19.07 213.98-17.14 212.98-15.2 212.98-12.25L212.98-12.25Q212.98-9.18 213.98-7.25 214.98-5.33 216.64-4.41 218.3-3.5 220.33-3.5ZM241.08 12.1L236.58 12.1 236.58-24.5 240.08-24.5 240.88-18.9 239.63-19.8Q241.18-22.2 243.45-23.6 245.72-25 249.03-25L249.03-25Q252.38-25 254.78-23.3 257.18-21.6 258.45-18.71 259.73-15.83 259.73-12.25L259.73-12.25Q259.73-8.68 258.52-5.79 257.32-2.9 254.95-1.2 252.58 0.5 249.03 0.5L249.03 0.5Q246.1 0.5 243.74-0.71 241.38-1.93 240.33-4.35L240.33-4.35 241.08-5.25 241.08 12.1ZM248.18-3.5L248.18-3.5Q251.45-3.5 253.29-5.81 255.13-8.13 255.13-12.25L255.13-12.25Q255.13-16.38 253.29-18.69 251.45-21 248.18-21L248.18-21Q246.15-21 244.49-20.04 242.83-19.07 241.83-17.14 240.83-15.2 240.83-12.25L240.83-12.25Q240.83-9.18 241.83-7.25 242.83-5.33 244.49-4.41 246.15-3.5 248.18-3.5Z" opacity="1" transform="matrix(1,0,0,1,0,0)" fill="#ffffff" class="wordmark-text-0" data-fill-palette-color="primary" id="text-0"></path></svg></g></svg></g><g transform="matrix(1,0,0,1,0,93.57160665325871)"><svg viewBox="0 0 395.52 28.917601944819598" height="28.917601944819598" width="395.52"><g transform="matrix(1,0,0,1,0,0)"><svg width="395.52" viewBox="0.8 -35.5 495.81 36.25" height="28.917601944819598" data-palette-color="#121111"><path d="M22.15 0L17.55-18.2 12.9 0 8.6 0 0.8-25.05 4.65-25.05 10.7-4.95 15.85-25.05 19.4-25.05 24.55-4.95 30.45-25.05 34.3-25.05 26.45 0 22.15 0ZM65.6-1.75Q63.8-0.6 61.5 0 59.2 0.6 56.9 0.6L56.9 0.6Q53.2 0.6 51.03-1.23 48.85-3.05 48.85-6.7L48.85-6.7 48.85-16.95Q48.85-21 51.38-23.25 53.9-25.5 58.05-25.5L58.05-25.5Q62.2-25.5 64.53-23.28 66.85-21.05 66.85-17.1L66.85-17.1 66.85-10.25 52.45-9.5 52.45-6.9Q52.45-4.8 53.75-3.75 55.05-2.7 57.3-2.7L57.3-2.7Q60.55-2.7 64.25-4.7L64.25-4.7 65.6-1.75ZM63.2-17.3Q63.2-19.95 61.55-21.08 59.9-22.2 58-22.2L58-22.2Q55.5-22.2 53.98-20.85 52.45-19.5 52.45-16.9L52.45-16.9 52.45-12.9 63.2-13.45 63.2-17.3ZM103.11 0Q97.71 0.55 95.31 0.55L95.31 0.55Q90.06 0.55 86.96-1.4 83.86-3.35 83.86-8.45L83.86-8.45 83.86-12.6Q83.86-17.55 87.31-19.25L87.31-19.25Q88.96-20.05 91.36-20.05L91.36-20.05Q93.56-20.05 95.81-19.38 98.06-18.7 99.51-17.65L99.51-17.65Q99.51-22.8 92.46-22.8L92.46-22.8 92.71-25.45Q97.51-25.45 99.78-23.93 102.06-22.4 102.58-20.3 103.11-18.2 103.11-14.9L103.11-14.9 103.11 0ZM99.51-14.4Q97.76-15.25 95.66-15.93 93.56-16.6 91.81-16.6L91.81-16.6Q87.46-16.6 87.46-12.3L87.46-12.3 87.46-8.4Q87.46-2.7 95.26-2.7L95.26-2.7Q96.81-2.7 99.51-3.05L99.51-3.05 99.51-14.4ZM125.71 0.65Q122.51 0.05 121.11-1.75 119.71-3.55 119.71-6.6L119.71-6.6 119.71-35 123.36-35 123.36-25.05 128.96-25.05 127.76-21.65 123.36-21.65 123.36-6.6Q123.36-3.05 126.76-2.15L126.76-2.15 125.71 0.65ZM161.37 0L161.37-16.6Q161.37-19.55 159.77-20.85 158.17-22.15 155.67-22.15L155.67-22.15Q154.22-22.15 152.72-21.75 151.22-21.35 150.12-20.7L150.12-20.7 150.12 0 146.52 0 146.52-35 150.12-35 150.12-24.05Q151.17-24.7 152.74-25.08 154.32-25.45 156.02-25.45L156.02-25.45Q158.87-25.45 160.72-24.55L160.72-24.55Q162.72-23.65 163.84-21.85 164.97-20.05 164.97-17.3L164.97-17.3 164.97 0 161.37 0ZM199.67-1.75Q197.87-0.6 195.57 0 193.27 0.6 190.97 0.6L190.97 0.6Q187.27 0.6 185.1-1.23 182.92-3.05 182.92-6.7L182.92-6.7 182.92-16.95Q182.92-21 185.45-23.25 187.97-25.5 192.12-25.5L192.12-25.5Q196.27-25.5 198.6-23.28 200.92-21.05 200.92-17.1L200.92-17.1 200.92-10.25 186.52-9.5 186.52-6.9Q186.52-4.8 187.82-3.75 189.12-2.7 191.37-2.7L191.37-2.7Q194.62-2.7 198.32-4.7L198.32-4.7 199.67-1.75ZM197.27-17.3Q197.27-19.95 195.62-21.08 193.97-22.2 192.07-22.2L192.07-22.2Q189.57-22.2 188.05-20.85 186.52-19.5 186.52-16.9L186.52-16.9 186.52-12.9 197.27-13.45 197.27-17.3ZM219.13 0L219.13-25.05 222.63-25.05 222.63-23.75Q224.98-25.5 228.18-25.5L228.18-25.5Q229.78-25.5 232.08-25L232.08-25 231.18-21.6Q229.68-22.15 228.03-22.15L228.03-22.15Q225.83-22.15 224.28-21.23 222.73-20.3 222.73-18.55L222.73-18.55 222.73 0 219.13 0ZM295.88 0L291.28-18.2 286.63 0 282.33 0 274.53-25.05 278.38-25.05 284.43-4.95 289.58-25.05 293.13-25.05 298.28-4.95 304.18-25.05 308.03-25.05 300.18 0 295.88 0ZM339.34-1.75Q337.54-0.6 335.24 0 332.94 0.6 330.64 0.6L330.64 0.6Q326.94 0.6 324.76-1.23 322.59-3.05 322.59-6.7L322.59-6.7 322.59-16.95Q322.59-21 325.11-23.25 327.64-25.5 331.79-25.5L331.79-25.5Q335.94-25.5 338.26-23.28 340.59-21.05 340.59-17.1L340.59-17.1 340.59-10.25 326.19-9.5 326.19-6.9Q326.19-4.8 327.49-3.75 328.79-2.7 331.04-2.7L331.04-2.7Q334.29-2.7 337.99-4.7L337.99-4.7 339.34-1.75ZM336.94-17.3Q336.94-19.95 335.29-21.08 333.64-22.2 331.74-22.2L331.74-22.2Q329.24-22.2 327.71-20.85 326.19-19.5 326.19-16.9L326.19-16.9 326.19-12.9 336.94-13.45 336.94-17.3ZM376.14-7.85Q376.14-5.3 375.09-3.55 374.04-1.8 372.24-0.9L372.24-0.9Q370.64-0.1 369.02 0.25 367.39 0.6 365.54 0.6L365.54 0.6Q363.69 0.6 360.44 0.25L360.44 0.25 357.69 0 357.69-35 361.29-35 361.29-24.1Q362.39-24.75 363.94-25.1 365.49-25.45 367.09-25.45L367.09-25.45Q369.84-25.45 371.89-24.5L371.89-24.5Q376.14-22.55 376.14-17.3L376.14-17.3 376.14-7.85ZM372.59-16.75Q372.59-19.55 370.97-20.8 369.34-22.05 366.84-22.05L366.84-22.05Q365.34-22.05 363.84-21.65 362.34-21.25 361.29-20.6L361.29-20.6 361.29-3.1Q363.09-2.75 365.24-2.75L365.24-2.75Q368.49-2.75 370.54-3.93 372.59-5.1 372.59-7.8L372.59-7.8 372.59-16.75ZM396.4-6.5Q396.6-4.65 398.25-3.63 399.9-2.6 402.15-2.6L402.15-2.6Q404.2-2.6 405.77-3.58 407.35-4.55 407.35-6.5L407.35-6.5Q407.35-7.85 406.57-8.75 405.8-9.65 404.62-10.18 403.45-10.7 401.4-11.4L401.4-11.4Q398.95-12.25 397.47-12.93 396-13.6 394.87-14.9 393.75-16.2 393.5-18.25L393.5-18.25 393.45-18.85Q393.45-20.5 394.37-22.08 395.3-23.65 397.22-24.65 399.15-25.65 402.05-25.65L402.05-25.65Q403.65-25.65 404.87-25.33 406.1-25 406.8-24.65 407.5-24.3 407.65-24.2L407.65-24.2 406.5-21.05Q406.35-21.15 405.82-21.45 405.3-21.75 404.3-22.03 403.3-22.3 402.05-22.3L402.05-22.3Q399.7-22.3 398.35-21.25 397-20.2 397.2-18.4L397.2-18.4Q397.35-17.05 398.67-16.28 400-15.5 402.7-14.55L402.7-14.55Q405.35-13.65 407.02-12.83 408.7-12 409.87-10.48 411.05-8.95 411.05-6.5L411.05-6.5Q411.05-3.4 408.8-1.33 406.55 0.75 402.15 0.75L402.15 0.75Q399.3 0.75 397.22-0.23 395.15-1.2 394.07-2.8 393-4.4 392.9-6.35L392.9-6.35 396.4-6.5ZM431.85-31.4Q431-31.4 430.38-32.02 429.75-32.65 429.75-33.45L429.75-33.45Q429.75-34.25 430.38-34.88 431-35.5 431.85-35.5L431.85-35.5Q432.65-35.5 433.25-34.9 433.85-34.3 433.85-33.45L433.85-33.45Q433.85-32.6 433.25-32 432.65-31.4 431.85-31.4L431.85-31.4ZM429.95 0L429.95-25.05 433.55-25.05 433.55 0 429.95 0ZM459.25 0.65Q456.05 0.05 454.65-1.75 453.25-3.55 453.25-6.6L453.25-6.6 453.25-35 456.9-35 456.9-25.05 462.5-25.05 461.3-21.65 456.9-21.65 456.9-6.6Q456.9-3.05 460.3-2.15L460.3-2.15 459.25 0.65ZM495.36-1.75Q493.56-0.6 491.26 0 488.96 0.6 486.66 0.6L486.66 0.6Q482.96 0.6 480.78-1.23 478.61-3.05 478.61-6.7L478.61-6.7 478.61-16.95Q478.61-21 481.13-23.25 483.66-25.5 487.81-25.5L487.81-25.5Q491.96-25.5 494.28-23.28 496.61-21.05 496.61-17.1L496.61-17.1 496.61-10.25 482.21-9.5 482.21-6.9Q482.21-4.8 483.51-3.75 484.81-2.7 487.06-2.7L487.06-2.7Q490.31-2.7 494.01-4.7L494.01-4.7 495.36-1.75ZM492.96-17.3Q492.96-19.95 491.31-21.08 489.66-22.2 487.76-22.2L487.76-22.2Q485.26-22.2 483.73-20.85 482.21-19.5 482.21-16.9L482.21-16.9 482.21-12.9 492.96-13.45 492.96-17.3Z" opacity="1" transform="matrix(1,0,0,1,0,0)" fill="#ffffff" class="slogan-text-1" data-fill-palette-color="secondary" id="text-1"></path></svg></g></svg></g></svg></g></svg></g><g><svg viewBox="0 0 338.56017256508846 338.56017256508846" height="338.56017256508846" width="338.56017256508846"><g><svg></svg></g><g id="icon-0"><svg viewBox="0 0 338.56017256508846 338.56017256508846" height="338.56017256508846" width="338.56017256508846"><g></g><g transform="matrix(1,0,0,1,67.71203451301771,67.71203451301771)"><svg viewBox="0 0 203.13610353905304 203.13610353905304" height="203.13610353905304" width="203.13610353905304"><g><svg xmlns="http://www.w3.org/2000/svg" xmlns:xlink="http://www.w3.org/1999/xlink" version="1.1" x="0" y="0" viewBox="0 0 79 79" enable-background="new 0 0 79 79" xml:space="preserve" height="203.13610353905304" width="203.13610353905304" class="icon-g$-0" data-fill-palette-color="quaternary" id="g$-0"><g fill="#ffffff" data-fill-palette-color="quaternary"><rect x="48.5" width="4" height="8" fill="#000000" data-fill-palette-color="quaternary"></rect><rect x="28.6763" y="8.969" transform="matrix(0.7071 0.7071 -0.7071 0.7071 17.3253 -19.8921)" width="7.9995" height="3.9996" fill="#000000" data-fill-palette-color="quaternary"></rect><rect x="63.3242" y="45.0315" transform="matrix(-0.7071 -0.7071 0.7071 -0.7071 81.6766 127.892)" width="7.9995" height="3.9996" fill="#000000" data-fill-palette-color="quaternary"></rect><rect x="71" y="27.5" width="8" height="4" fill="#000000" data-fill-palette-color="quaternary"></rect><rect x="66.0315" y="7.6759" transform="matrix(0.7071 0.7071 -0.7071 0.7071 28.1819 -44.6856)" width="3.9996" height="7.9998" fill="#000000" data-fill-palette-color="quaternary"></rect><path d="M34.157 31.117C34.858 31.048 35.566 31 36.286 31c0.644 0 1.28 0.037 1.909 0.094C38.075 30.413 38 29.715 38 29c0-6.617 5.383-12 12-12s12 5.383 12 12c0 5.257-3.402 9.724-8.117 11.343 0.761 1.108 1.421 2.289 1.97 3.533C61.785 41.533 66 35.755 66 29c0-8.822-7.178-16-16-16s-16 7.178-16 16C34 29.719 34.064 30.422 34.157 31.117z" fill="#000000" data-fill-palette-color="quaternary"></path><path d="M53.636 54.283c0.052-0.548 0.079-1.093 0.078-1.631C53.714 42.919 45.896 35 36.286 35c-7.871 0-14.566 5.2-16.706 12.658-1.255-0.322-2.548-0.484-3.866-0.484C7.049 47.174 0 54.313 0 63.087S7.146 79 15.929 79h35.785C58.489 79 64 73.422 64 66.565 64 60.37 59.501 55.219 53.636 54.283zM51.714 75H15.929C9.351 75 4 69.656 4 63.087s5.255-11.913 11.714-11.913c1.58 0 3.11 0.314 4.552 0.932l2.38 1.023 0.386-2.562C24.044 43.864 29.618 39 36.286 39c7.405 0 13.429 6.124 13.428 13.652 0 0.996-0.118 2.024-0.351 3.058L48.79 58.244l2.924-0.113c4.569 0 8.286 3.784 8.286 8.434S56.283 75 51.714 75z" fill="#000000" data-fill-palette-color="quaternary"></path><rect x="21" y="26.5" width="8" height="4" fill="#000000" data-fill-palette-color="quaternary"></rect></g></svg></g></svg></g></svg></g></svg></g></svg></g><defs></defs><mask id="4b7a90bb-f2c5-4a69-91eb-2e106e53c882"><g id="SvgjsG1034"><svg viewBox="0 0 395.52 178.07978822028002" height="178.07978822028002" width="395.52"><g><svg viewBox="0 0 751.951250566987 338.56017256508846" height="178.07978822028002" width="395.52"><g transform="matrix(1,0,0,1,356.431250566987,108.03548198350508)"><svg viewBox="0 0 395.52 122.4892085980783" height="122.4892085980783" width="395.52"><g id="SvgjsG1033"><svg viewBox="0 0 395.52 122.4892085980783" height="122.4892085980783" width="395.52" id="SvgjsSvg1032"><g><svg viewBox="0 0 395.52 75.7005286513602" height="75.7005286513602" width="395.52"><g transform="matrix(1,0,0,1,0,0)"><svg width="395.52" viewBox="0.6 -37.5 259.13 49.6" height="75.7005286513602" data-palette-color="#000000"></svg></g></svg></g><g transform="matrix(1,0,0,1,0,93.57160665325871)"><svg viewBox="0 0 395.52 28.917601944819598" height="28.917601944819598" width="395.52"><g transform="matrix(1,0,0,1,0,0)"><svg width="395.52" viewBox="0.8 -35.5 495.81 36.25" height="28.917601944819598" data-palette-color="#121111"></svg></g></svg></g></svg></g></svg></g><g><svg viewBox="0 0 338.56017256508846 338.56017256508846" height="338.56017256508846" width="338.56017256508846"><g><svg></svg></g><g id="SvgjsG1029"><svg viewBox="0 0 338.56017256508846 338.56017256508846" height="338.56017256508846" width="338.56017256508846"><g><path transform="scale(3.3856,3.3856)" d="M30 100c-16.569 0-30-13.431-30-30v-40c0-16.569 13.431-30 30-30h40c16.569 0 30 13.431 30 30v40c0 16.569-13.431 30-30 30z" fill="white" fill-rule="nonzero" stroke="none" stroke-width="1" stroke-linecap="butt" stroke-linejoin="miter" stroke-miterlimit="10" stroke-dasharray="" stroke-dashoffset="0" font-family="none" font-weight="none" font-size="none" text-anchor="none" style="mix-blend-mode: normal"></path></g><g transform="matrix(1,0,0,1,67.71203451301771,67.71203451301771)"><svg viewBox="0 0 203.13610353905304 203.13610353905304" height="203.13610353905304" width="203.13610353905304"><g><svg xmlns="http://www.w3.org/2000/svg" xmlns:xlink="http://www.w3.org/1999/xlink" version="1.1" x="0" y="0" viewBox="0 0 79 79" enable-background="new 0 0 79 79" xml:space="preserve" height="203.13610353905304" width="203.13610353905304" class="icon-g$-0" data-fill-palette-color="quaternary" id="SvgjsSvg1028"></svg></g></svg></g></svg></g></svg></g></svg></g><defs><mask></mask></defs></svg></g></mask><linearGradient x1="0" x2="1" y1="0.578" y2="0.595" id="c8ccabab-78f9-4131-a9ee-a925d2d9dd6f"><stop stop-color="#6ee2f5" offset="0"></stop><stop stop-color="#6454f0" offset="1"></stop></linearGradient></svg><rect width="395.52" height="178.07978822028002" fill="none" stroke="none" visibility="hidden"></rect></g></svg></g></svg>